<?xml version="1.0" encoding="UTF-8" standalone="no"?>
<!-- Created with Inkscape (http://www.inkscape.org/) -->

<svg
   xmlns:dc="http://purl.org/dc/elements/1.1/"
   xmlns:cc="http://creativecommons.org/ns#"
   xmlns:rdf="http://www.w3.org/1999/02/22-rdf-syntax-ns#"
   xmlns:svg="http://www.w3.org/2000/svg"
   xmlns="http://www.w3.org/2000/svg"
   xmlns:sodipodi="http://sodipodi.sourceforge.net/DTD/sodipodi-0.dtd"
   xmlns:inkscape="http://www.inkscape.org/namespaces/inkscape"
   width="314"
   height="166"
   id="svg3213"
   version="1.1"
   inkscape:version="0.48.3.1 r9886"
   sodipodi:docname="acid-label.svg">
  <defs
     id="defs3215" />
  <sodipodi:namedview
     id="base"
     pagecolor="#ffffff"
     bordercolor="rgb(102,102,102)"
     borderopacity="1.0"
     inkscape:pageopacity="0.0"
     inkscape:pageshadow="2"
     inkscape:zoom="2"
     inkscape:cx="151.809"
     inkscape:cy="48.700719"
     inkscape:document-units="px"
     inkscape:current-layer="layer1"
     showgrid="true"
     fit-margin-top="0"
     fit-margin-left="0"
     fit-margin-right="0"
     fit-margin-bottom="0"
     inkscape:window-width="1600"
     inkscape:window-height="841"
     inkscape:window-x="0"
     inkscape:window-y="28"
     inkscape:window-maximized="1"
     showguides="true"
     inkscape:guide-bbox="true">
    <inkscape:grid
       type="xygrid"
       id="grid3526"
       empspacing="5"
       visible="true"
       enabled="true"
       snapvisiblegridlinesonly="true" />
    <sodipodi:guide
       orientation="0,1"
       position="49,146"
       id="guide3002" />
    <sodipodi:guide
       orientation="0,1"
       position="55,20"
       id="guide3006" />
    <sodipodi:guide
       orientation="1,0"
       position="20,23"
       id="guide3010" />
    <sodipodi:guide
       orientation="1,0"
       position="294,54"
       id="guide3014" />
    <sodipodi:guide
       orientation="0,1"
       position="91,64"
       id="guide3020" />
  </sodipodi:namedview>
  <metadata
     id="metadata3218">
    <rdf:RDF>
      <cc:Work
         rdf:about="">
        <dc:format>image/svg+xml</dc:format>
        <dc:type
           rdf:resource="http://purl.org/dc/dcmitype/StillImage" />
        <dc:title />
      </cc:Work>
    </rdf:RDF>
  </metadata>
  <g
     inkscape:label="Layer 1"
     inkscape:groupmode="layer"
     id="layer1"
     transform="translate(-182.99997,-395.29076)">
    <rect
       style="fill:rgb(35,35,35);fill-opacity:1;stroke:none"
       id="rect3108-6"
       width="314"
       height="166"
       x="182.99997"
       y="395.29077" />
    <rect
       style="fill:rgb(64,64,64);fill-opacity:1;stroke:none"
       id="rect3108-4-7"
       width="313"
       height="163.99998"
       x="183.99997"
       y="396.29077" />
    <rect
       style="fill:rgb(52,52,52);fill-opacity:1;stroke:none"
       id="rect3757"
       width="311"
       height="161.99998"
       x="184.99997"
       y="397.29077" />
    <g
       style="fill:#a6e028;fill-opacity:1"
       id="g5501"
       transform="matrix(0.93254166,0,0,0.93195937,2.6152158,-425.63469)">
      <g
         style="fill:#a6e028;fill-opacity:1"
         transform="translate(185.21444,-30.67701)"
         id="g5495">
        <path
           inkscape:connector-curvature="0"
           id="path3772"
           style="font-size:148px;font-style:normal;font-variant:normal;font-weight:bold;font-stretch:normal;line-height:125%;letter-spacing:0px;word-spacing:0px;fill:#a6e028;fill-opacity:1;stroke:none;font-family:Cantarell;-inkscape-font-specification:Cantarell Bold"
           d="m 61.961737,932.99687 -32.295958,88.00003 14.905828,0 8.695065,-23.07787 31.550666,0 8.819285,23.07787 15.775337,0 -32.420181,-88.00003 -15.030042,0 m 18.135423,50.72043 -22.11031,0 11.055155,-32.71468 11.055155,32.71468" />
        <path
           inkscape:connector-curvature="0"
           id="path3774"
           style="font-size:148px;font-style:normal;font-variant:normal;font-weight:bold;font-stretch:normal;line-height:125%;letter-spacing:0px;word-spacing:0px;fill:#a6e028;fill-opacity:1;stroke:none;font-family:Cantarell;-inkscape-font-specification:Cantarell Bold"
           d="m 163.96837,932.99687 c -27.93451,0 -46.31592,18.98729 -46.31592,43.80718 0,24.44765 17.63603,44.17945 45.57055,44.17945 7.94581,0 17.2578,-1.8615 26.32099,-5.7085 l 2.23476,-0.8687 -4.96613,-12.1619 -2.23477,0.7446 c -6.70428,2.3579 -13.16027,4.0454 -18.74717,4.0454 -20.11286,0 -33.15612,-14.3456 -33.15612,-30.35444 0,-15.51246 12.29834,-29.73398 30.92135,-29.73398 3.97291,0 10.18059,0.69465 19.86456,4.04535 l 2.35891,0.86869 4.71784,-13.15456 -2.23476,-0.86871 c -9.06319,-3.59889 -17.62981,-4.83988 -24.33409,-4.83988"
           sodipodi:nodetypes="cssccccsssccccc" />
        <path
           inkscape:connector-curvature="0"
           id="path3776"
           style="font-size:148px;font-style:normal;font-variant:normal;font-weight:bold;font-stretch:normal;line-height:125%;letter-spacing:0px;word-spacing:0px;fill:#a6e028;fill-opacity:1;stroke:none;font-family:Cantarell;-inkscape-font-specification:Cantarell Bold"
           d="m 212.07716,932.99687 0,87.98663 16.09512,0 0,-87.98663 -16.09512,0" />
        <path
           inkscape:connector-curvature="0"
           id="path3778"
           style="font-size:148px;font-style:normal;font-variant:normal;font-weight:bold;font-stretch:normal;line-height:125%;letter-spacing:0px;word-spacing:0px;fill:#a6e028;fill-opacity:1;stroke:none;font-family:Cantarell;-inkscape-font-specification:Cantarell Bold"
           d="m 277.45647,947.32321 c 2.52913,0 5.18472,0.12678 7.58737,0.50713 10.49583,1.64815 22.35752,9.88901 22.35752,28.6527 0,8.24081 -1.74521,13.56566 -3.38914,16.48164 -7.20797,13.31202 -21.11814,13.69242 -30.85524,13.69242 l -9.72149,0 0,-59.33389 14.02098,0 m -0.37935,-14.32634 -29.59069,0 0,87.98663 22.00333,0 c 7.33445,0 14.9218,0 22.50915,-1.9018 24.40597,-5.8319 31.48752,-26.75096 31.48752,-44.62717 0,-19.39761 -10.1165,-41.45766 -46.40931,-41.45766"
           sodipodi:nodetypes="ccscsccccccscsc" />
      </g>
    </g>
    <text
       xml:space="preserve"
       style="font-size:14px;font-style:normal;font-variant:normal;font-weight:bold;font-stretch:normal;line-height:125%;letter-spacing:0px;word-spacing:0px;fill:#a6e028;fill-opacity:1;stroke:none;font-family:Cantarell;-inkscape-font-specification:Sans Bold"
       x="238.94972"
       y="541.29077"
       id="text5516"
       sodipodi:linespacing="125%"><tspan
         sodipodi:role="line"
         id="tspan5518"
         x="238.94972"
         y="541.29077"
         style="font-size:32px;fill:#a6e028;fill-opacity:1">Configurator</tspan></text>
  </g>
</svg>
