<?xml version="1.0" encoding="UTF-8" standalone="no"?>
<!-- Created with Inkscape (http://www.inkscape.org/) -->

<svg
   xmlns:dc="http://purl.org/dc/elements/1.1/"
   xmlns:cc="http://creativecommons.org/ns#"
   xmlns:rdf="http://www.w3.org/1999/02/22-rdf-syntax-ns#"
   xmlns:svg="http://www.w3.org/2000/svg"
   xmlns="http://www.w3.org/2000/svg"
   xmlns:sodipodi="http://sodipodi.sourceforge.net/DTD/sodipodi-0.dtd"
   xmlns:inkscape="http://www.inkscape.org/namespaces/inkscape"
   width="16"
   height="16"
   id="svg12430"
   version="1.1"
   inkscape:version="0.48.4 r9939"
   sodipodi:docname="more-results.svg">
  <defs
     id="defs12432" />
  <sodipodi:namedview
     id="base"
     pagecolor="#ffffff"
     bordercolor="rgb(102,102,102)"
     borderopacity="1.0"
     inkscape:pageopacity="0"
     inkscape:pageshadow="2"
     inkscape:zoom="16"
     inkscape:cx="5.0712888"
     inkscape:cy="5.5079673"
     inkscape:document-units="px"
     inkscape:current-layer="g14642-3-0"
     showgrid="false"
     borderlayer="true"
     inkscape:showpageshadow="false"
     inkscape:window-width="1598"
     inkscape:window-height="844"
     inkscape:window-x="0"
     inkscape:window-y="28"
     inkscape:window-maximized="1">
    <inkscape:grid
       type="xygrid"
       id="grid13002"
       empspacing="5"
       visible="true"
       enabled="true"
       snapvisiblegridlinesonly="true" />
  </sodipodi:namedview>
  <metadata
     id="metadata12435">
    <rdf:RDF>
      <cc:Work
         rdf:about="">
        <dc:format>image/svg+xml</dc:format>
        <dc:type
           rdf:resource="http://purl.org/dc/dcmitype/StillImage" />
        <dc:title />
      </cc:Work>
    </rdf:RDF>
  </metadata>
  <g
     inkscape:label="Layer 1"
     inkscape:groupmode="layer"
     id="layer1"
     transform="translate(0,-1036.3622)">
    <g
       style="display:inline"
       transform="translate(-141.99984,638.37113)"
       inkscape:label="zoom-in"
       id="g14642-3-0">
      <rect
         style="fill:rgb(35,35,35);fill-opacity:1;stroke:none"
         id="rect3826"
         width="16"
         height="16"
         x="141.99985"
         y="397.99106"
         ry="0" />
      <rect
         style="fill:rgb(64,64,64);fill-opacity:1;stroke:none"
         id="rect3828"
         width="14"
         height="14"
         x="142.99985"
         y="398.99109" />
      <rect
         style="fill:rgb(51,51,51);fill-opacity:1;stroke:none"
         id="rect3830"
         width="12"
         height="12"
         x="143.99985"
         y="399.99106" />
      <path
         style="fill:#a6e028;fill-opacity:1;stroke-width:0;stroke-miterlimit:4;stroke-dasharray:none"
         d="m 144.99984,406.80928 c 0,0.1108 0.0937,0.18181 0.20455,0.1818 l 3.79545,0 0,3.81818 c 0,0.1108 0.0937,0.18181 0.20455,0.18181 l 1.5909,0 c 0.1108,0 0.20454,-0.071 0.20454,-0.18181 l 1e-5,-3.81817 3.79544,-10e-6 c 0.11081,0 0.20456,-0.071 0.20456,-0.18181 l -1e-5,-1.61362 c 0,-0.11081 -0.0937,-0.20456 -0.20454,-0.20455 l -3.79545,0 0,-3.79544 c 0,-0.1108 -0.0937,-0.20455 -0.20454,-0.20455 l -1.59089,0 c -0.1108,0 -0.20455,0.0937 -0.20455,0.20456 l 0,3.79544 -3.79545,0 c -0.1108,0 -0.20454,0.0937 -0.20454,0.20454 l 0,1.61363 z"
         id="rect3874"
         inkscape:connector-curvature="0" />
    </g>
  </g>
</svg>
